<?xml version="1.0" encoding="utf-8" standalone="no"?>
<!DOCTYPE svg PUBLIC "-//W3C//DTD SVG 1.1//EN"
  "http://www.w3.org/Graphics/SVG/1.1/DTD/svg11.dtd">
<svg height="432pt" version="1.1" viewBox="0 0 576 432" width="576pt" xmlns="http://www.w3.org/2000/svg" xmlns:xlink="http://www.w3.org/1999/xlink">
 <metadata>
  <rdf:RDF xmlns:cc="http://creativecommons.org/ns#" xmlns:dc="http://purl.org/dc/elements/1.1/" xmlns:rdf="http://www.w3.org/1999/02/22-rdf-syntax-ns#">
   <cc:Work>
    <dc:type rdf:resource="http://purl.org/dc/dcmitype/StillImage"/>
    <dc:date>2021-05-30T21:50:02.102371</dc:date>
    <dc:format>image/svg+xml</dc:format>
    <dc:creator>
     <cc:Agent>
      <dc:title>Matplotlib v3.4.2, https://matplotlib.org/</dc:title>
     </cc:Agent>
    </dc:creator>
   </cc:Work>
  </rdf:RDF>
 </metadata>
 <defs>
  <style type="text/css">*{stroke-linecap:butt;stroke-linejoin:round;}</style>
 </defs>
 <g id="figure_1">
  <g id="patch_1">
   <path d="M 0 432 
L 576 432 
L 576 0 
L 0 0 
z
" style="fill:none;"/>
  </g>
  <g id="axes_1">
   <g id="patch_2">
    <path d="M 72 378 
L 518.4 378 
L 518.4 51.84 
L 72 51.84 
z
" style="fill:#ffffff;"/>
   </g>
   <g id="PathCollection_1">
    <defs>
     <path d="M 0 3 
C 0.795609 3 1.55874 2.683901 2.12132 2.12132 
C 2.683901 1.55874 3 0.795609 3 0 
C 3 -0.795609 2.683901 -1.55874 2.12132 -2.12132 
C 1.55874 -2.683901 0.795609 -3 0 -3 
C -0.795609 -3 -1.55874 -2.683901 -2.12132 -2.12132 
C -2.683901 -1.55874 -3 -0.795609 -3 0 
C -3 0.795609 -2.683901 1.55874 -2.12132 2.12132 
C -1.55874 2.683901 -0.795609 3 0 3 
z
" id="m03f72fbd2d" style="stroke:#ffa500;"/>
    </defs>
    <g clip-path="url(#pa1cf70f2d4)">
     <use style="fill:#ffa500;stroke:#ffa500;" x="92.290909" xlink:href="#m03f72fbd2d" y="122.324506"/>
     <use style="fill:#ffa500;stroke:#ffa500;" x="96.390083" xlink:href="#m03f72fbd2d" y="122.053269"/>
     <use style="fill:#ffa500;stroke:#ffa500;" x="100.489256" xlink:href="#m03f72fbd2d" y="122.06603"/>
     <use style="fill:#ffa500;stroke:#ffa500;" x="104.58843" xlink:href="#m03f72fbd2d" y="121.440677"/>
     <use style="fill:#ffa500;stroke:#ffa500;" x="108.687603" xlink:href="#m03f72fbd2d" y="121.628014"/>
     <use style="fill:#ffa500;stroke:#ffa500;" x="112.786777" xlink:href="#m03f72fbd2d" y="121.339566"/>
     <use style="fill:#ffa500;stroke:#ffa500;" x="116.88595" xlink:href="#m03f72fbd2d" y="121.018285"/>
     <use style="fill:#ffa500;stroke:#ffa500;" x="120.985124" xlink:href="#m03f72fbd2d" y="121.050858"/>
     <use style="fill:#ffa500;stroke:#ffa500;" x="125.084298" xlink:href="#m03f72fbd2d" y="120.87831"/>
     <use style="fill:#ffa500;stroke:#ffa500;" x="129.183471" xlink:href="#m03f72fbd2d" y="120.719438"/>
     <use style="fill:#ffa500;stroke:#ffa500;" x="133.282645" xlink:href="#m03f72fbd2d" y="120.42387"/>
     <use style="fill:#ffa500;stroke:#ffa500;" x="137.381818" xlink:href="#m03f72fbd2d" y="120.105732"/>
     <use style="fill:#ffa500;stroke:#ffa500;" x="141.480992" xlink:href="#m03f72fbd2d" y="120.239095"/>
     <use style="fill:#ffa500;stroke:#ffa500;" x="145.580165" xlink:href="#m03f72fbd2d" y="120.259032"/>
     <use style="fill:#ffa500;stroke:#ffa500;" x="149.679339" xlink:href="#m03f72fbd2d" y="119.973545"/>
     <use style="fill:#ffa500;stroke:#ffa500;" x="153.778512" xlink:href="#m03f72fbd2d" y="120.005249"/>
     <use style="fill:#ffa500;stroke:#ffa500;" x="157.877686" xlink:href="#m03f72fbd2d" y="119.85348"/>
     <use style="fill:#ffa500;stroke:#ffa500;" x="161.97686" xlink:href="#m03f72fbd2d" y="119.639552"/>
     <use style="fill:#ffa500;stroke:#ffa500;" x="166.076033" xlink:href="#m03f72fbd2d" y="119.777911"/>
     <use style="fill:#ffa500;stroke:#ffa500;" x="170.175207" xlink:href="#m03f72fbd2d" y="119.624391"/>
     <use style="fill:#ffa500;stroke:#ffa500;" x="174.27438" xlink:href="#m03f72fbd2d" y="119.658963"/>
     <use style="fill:#ffa500;stroke:#ffa500;" x="178.373554" xlink:href="#m03f72fbd2d" y="119.520049"/>
     <use style="fill:#ffa500;stroke:#ffa500;" x="182.472727" xlink:href="#m03f72fbd2d" y="119.420365"/>
     <use style="fill:#ffa500;stroke:#ffa500;" x="186.571901" xlink:href="#m03f72fbd2d" y="119.509574"/>
     <use style="fill:#ffa500;stroke:#ffa500;" x="190.671074" xlink:href="#m03f72fbd2d" y="119.392719"/>
     <use style="fill:#ffa500;stroke:#ffa500;" x="194.770248" xlink:href="#m03f72fbd2d" y="119.34088"/>
     <use style="fill:#ffa500;stroke:#ffa500;" x="198.869421" xlink:href="#m03f72fbd2d" y="119.349038"/>
     <use style="fill:#ffa500;stroke:#ffa500;" x="202.968595" xlink:href="#m03f72fbd2d" y="119.377483"/>
     <use style="fill:#ffa500;stroke:#ffa500;" x="207.067769" xlink:href="#m03f72fbd2d" y="119.374384"/>
     <use style="fill:#ffa500;stroke:#ffa500;" x="211.166942" xlink:href="#m03f72fbd2d" y="119.207931"/>
     <use style="fill:#ffa500;stroke:#ffa500;" x="215.266116" xlink:href="#m03f72fbd2d" y="119.198344"/>
     <use style="fill:#ffa500;stroke:#ffa500;" x="219.365289" xlink:href="#m03f72fbd2d" y="118.901239"/>
     <use style="fill:#ffa500;stroke:#ffa500;" x="223.464463" xlink:href="#m03f72fbd2d" y="119.403023"/>
     <use style="fill:#ffa500;stroke:#ffa500;" x="227.563636" xlink:href="#m03f72fbd2d" y="119.10629"/>
     <use style="fill:#ffa500;stroke:#ffa500;" x="231.66281" xlink:href="#m03f72fbd2d" y="119.066458"/>
     <use style="fill:#ffa500;stroke:#ffa500;" x="235.761983" xlink:href="#m03f72fbd2d" y="118.947804"/>
     <use style="fill:#ffa500;stroke:#ffa500;" x="239.861157" xlink:href="#m03f72fbd2d" y="119.036583"/>
     <use style="fill:#ffa500;stroke:#ffa500;" x="243.960331" xlink:href="#m03f72fbd2d" y="119.181751"/>
     <use style="fill:#ffa500;stroke:#ffa500;" x="248.059504" xlink:href="#m03f72fbd2d" y="119.085661"/>
     <use style="fill:#ffa500;stroke:#ffa500;" x="252.158678" xlink:href="#m03f72fbd2d" y="119.025004"/>
     <use style="fill:#ffa500;stroke:#ffa500;" x="256.257851" xlink:href="#m03f72fbd2d" y="119.121434"/>
     <use style="fill:#ffa500;stroke:#ffa500;" x="260.357025" xlink:href="#m03f72fbd2d" y="119.004011"/>
     <use style="fill:#ffa500;stroke:#ffa500;" x="264.456198" xlink:href="#m03f72fbd2d" y="119.301742"/>
     <use style="fill:#ffa500;stroke:#ffa500;" x="268.555372" xlink:href="#m03f72fbd2d" y="118.908013"/>
     <use style="fill:#ffa500;stroke:#ffa500;" x="272.654545" xlink:href="#m03f72fbd2d" y="118.944686"/>
     <use style="fill:#ffa500;stroke:#ffa500;" x="276.753719" xlink:href="#m03f72fbd2d" y="119.153644"/>
     <use style="fill:#ffa500;stroke:#ffa500;" x="280.852893" xlink:href="#m03f72fbd2d" y="119.058263"/>
     <use style="fill:#ffa500;stroke:#ffa500;" x="284.952066" xlink:href="#m03f72fbd2d" y="119.1317"/>
     <use style="fill:#ffa500;stroke:#ffa500;" x="289.05124" xlink:href="#m03f72fbd2d" y="119.240944"/>
     <use style="fill:#ffa500;stroke:#ffa500;" x="293.150413" xlink:href="#m03f72fbd2d" y="119.151795"/>
     <use style="fill:#ffa500;stroke:#ffa500;" x="297.249587" xlink:href="#m03f72fbd2d" y="119.063883"/>
     <use style="fill:#ffa500;stroke:#ffa500;" x="301.34876" xlink:href="#m03f72fbd2d" y="119.231464"/>
     <use style="fill:#ffa500;stroke:#ffa500;" x="305.447934" xlink:href="#m03f72fbd2d" y="119.245584"/>
     <use style="fill:#ffa500;stroke:#ffa500;" x="309.547107" xlink:href="#m03f72fbd2d" y="119.227343"/>
     <use style="fill:#ffa500;stroke:#ffa500;" x="313.646281" xlink:href="#m03f72fbd2d" y="119.186531"/>
     <use style="fill:#ffa500;stroke:#ffa500;" x="317.745455" xlink:href="#m03f72fbd2d" y="119.108595"/>
     <use style="fill:#ffa500;stroke:#ffa500;" x="321.844628" xlink:href="#m03f72fbd2d" y="119.337191"/>
     <use style="fill:#ffa500;stroke:#ffa500;" x="325.943802" xlink:href="#m03f72fbd2d" y="119.226434"/>
     <use style="fill:#ffa500;stroke:#ffa500;" x="330.042975" xlink:href="#m03f72fbd2d" y="119.275102"/>
     <use style="fill:#ffa500;stroke:#ffa500;" x="334.142149" xlink:href="#m03f72fbd2d" y="119.521641"/>
     <use style="fill:#ffa500;stroke:#ffa500;" x="338.241322" xlink:href="#m03f72fbd2d" y="119.377647"/>
     <use style="fill:#ffa500;stroke:#ffa500;" x="342.340496" xlink:href="#m03f72fbd2d" y="119.36131"/>
     <use style="fill:#ffa500;stroke:#ffa500;" x="346.439669" xlink:href="#m03f72fbd2d" y="119.366094"/>
     <use style="fill:#ffa500;stroke:#ffa500;" x="350.538843" xlink:href="#m03f72fbd2d" y="119.340003"/>
     <use style="fill:#ffa500;stroke:#ffa500;" x="354.638017" xlink:href="#m03f72fbd2d" y="119.616649"/>
     <use style="fill:#ffa500;stroke:#ffa500;" x="358.73719" xlink:href="#m03f72fbd2d" y="119.397864"/>
     <use style="fill:#ffa500;stroke:#ffa500;" x="362.836364" xlink:href="#m03f72fbd2d" y="119.490276"/>
     <use style="fill:#ffa500;stroke:#ffa500;" x="366.935537" xlink:href="#m03f72fbd2d" y="119.585772"/>
     <use style="fill:#ffa500;stroke:#ffa500;" x="371.034711" xlink:href="#m03f72fbd2d" y="119.377269"/>
     <use style="fill:#ffa500;stroke:#ffa500;" x="375.133884" xlink:href="#m03f72fbd2d" y="119.362019"/>
     <use style="fill:#ffa500;stroke:#ffa500;" x="379.233058" xlink:href="#m03f72fbd2d" y="119.522836"/>
     <use style="fill:#ffa500;stroke:#ffa500;" x="383.332231" xlink:href="#m03f72fbd2d" y="119.361523"/>
     <use style="fill:#ffa500;stroke:#ffa500;" x="387.431405" xlink:href="#m03f72fbd2d" y="119.50034"/>
     <use style="fill:#ffa500;stroke:#ffa500;" x="391.530579" xlink:href="#m03f72fbd2d" y="119.451302"/>
     <use style="fill:#ffa500;stroke:#ffa500;" x="395.629752" xlink:href="#m03f72fbd2d" y="119.579107"/>
     <use style="fill:#ffa500;stroke:#ffa500;" x="399.728926" xlink:href="#m03f72fbd2d" y="119.2769"/>
     <use style="fill:#ffa500;stroke:#ffa500;" x="403.828099" xlink:href="#m03f72fbd2d" y="119.741339"/>
     <use style="fill:#ffa500;stroke:#ffa500;" x="407.927273" xlink:href="#m03f72fbd2d" y="119.446155"/>
     <use style="fill:#ffa500;stroke:#ffa500;" x="412.026446" xlink:href="#m03f72fbd2d" y="119.345595"/>
     <use style="fill:#ffa500;stroke:#ffa500;" x="416.12562" xlink:href="#m03f72fbd2d" y="119.631979"/>
     <use style="fill:#ffa500;stroke:#ffa500;" x="420.224793" xlink:href="#m03f72fbd2d" y="119.406714"/>
     <use style="fill:#ffa500;stroke:#ffa500;" x="424.323967" xlink:href="#m03f72fbd2d" y="119.369766"/>
     <use style="fill:#ffa500;stroke:#ffa500;" x="428.42314" xlink:href="#m03f72fbd2d" y="119.240786"/>
     <use style="fill:#ffa500;stroke:#ffa500;" x="432.522314" xlink:href="#m03f72fbd2d" y="119.160323"/>
     <use style="fill:#ffa500;stroke:#ffa500;" x="436.621488" xlink:href="#m03f72fbd2d" y="119.305471"/>
     <use style="fill:#ffa500;stroke:#ffa500;" x="440.720661" xlink:href="#m03f72fbd2d" y="119.370774"/>
     <use style="fill:#ffa500;stroke:#ffa500;" x="444.819835" xlink:href="#m03f72fbd2d" y="119.01591"/>
     <use style="fill:#ffa500;stroke:#ffa500;" x="448.919008" xlink:href="#m03f72fbd2d" y="118.977322"/>
     <use style="fill:#ffa500;stroke:#ffa500;" x="453.018182" xlink:href="#m03f72fbd2d" y="119.10241"/>
     <use style="fill:#ffa500;stroke:#ffa500;" x="457.117355" xlink:href="#m03f72fbd2d" y="118.943906"/>
     <use style="fill:#ffa500;stroke:#ffa500;" x="461.216529" xlink:href="#m03f72fbd2d" y="118.865139"/>
     <use style="fill:#ffa500;stroke:#ffa500;" x="465.315702" xlink:href="#m03f72fbd2d" y="118.761802"/>
     <use style="fill:#ffa500;stroke:#ffa500;" x="469.414876" xlink:href="#m03f72fbd2d" y="118.711203"/>
     <use style="fill:#ffa500;stroke:#ffa500;" x="473.51405" xlink:href="#m03f72fbd2d" y="118.478413"/>
     <use style="fill:#ffa500;stroke:#ffa500;" x="477.613223" xlink:href="#m03f72fbd2d" y="118.719596"/>
     <use style="fill:#ffa500;stroke:#ffa500;" x="481.712397" xlink:href="#m03f72fbd2d" y="118.293485"/>
     <use style="fill:#ffa500;stroke:#ffa500;" x="485.81157" xlink:href="#m03f72fbd2d" y="118.239505"/>
     <use style="fill:#ffa500;stroke:#ffa500;" x="489.910744" xlink:href="#m03f72fbd2d" y="118.168171"/>
     <use style="fill:#ffa500;stroke:#ffa500;" x="494.009917" xlink:href="#m03f72fbd2d" y="117.865072"/>
     <use style="fill:#ffa500;stroke:#ffa500;" x="498.109091" xlink:href="#m03f72fbd2d" y="118.095613"/>
    </g>
   </g>
   <g id="matplotlib.axis_1">
    <g id="xtick_1">
     <g id="line2d_1">
      <path clip-path="url(#pa1cf70f2d4)" d="M 92.290909 378 
L 92.290909 51.84 
" style="fill:none;stroke:#b0b0b0;stroke-linecap:square;stroke-width:0.8;"/>
     </g>
     <g id="line2d_2">
      <defs>
       <path d="M 0 0 
L 0 3.5 
" id="m41ca6bcbb6" style="stroke:#000000;stroke-width:0.8;"/>
      </defs>
      <g>
       <use style="stroke:#000000;stroke-width:0.8;" x="92.290909" xlink:href="#m41ca6bcbb6" y="378"/>
      </g>
     </g>
     <g id="text_1">
      <!-- -1.00 -->
      <g transform="translate(79.35419 392.598437)scale(0.1 -0.1)">
       <defs>
        <path d="M 313 2009 
L 1997 2009 
L 1997 1497 
L 313 1497 
L 313 2009 
z
" id="DejaVuSans-2d" transform="scale(0.015625)"/>
        <path d="M 794 531 
L 1825 531 
L 1825 4091 
L 703 3866 
L 703 4441 
L 1819 4666 
L 2450 4666 
L 2450 531 
L 3481 531 
L 3481 0 
L 794 0 
L 794 531 
z
" id="DejaVuSans-31" transform="scale(0.015625)"/>
        <path d="M 684 794 
L 1344 794 
L 1344 0 
L 684 0 
L 684 794 
z
" id="DejaVuSans-2e" transform="scale(0.015625)"/>
        <path d="M 2034 4250 
Q 1547 4250 1301 3770 
Q 1056 3291 1056 2328 
Q 1056 1369 1301 889 
Q 1547 409 2034 409 
Q 2525 409 2770 889 
Q 3016 1369 3016 2328 
Q 3016 3291 2770 3770 
Q 2525 4250 2034 4250 
z
M 2034 4750 
Q 2819 4750 3233 4129 
Q 3647 3509 3647 2328 
Q 3647 1150 3233 529 
Q 2819 -91 2034 -91 
Q 1250 -91 836 529 
Q 422 1150 422 2328 
Q 422 3509 836 4129 
Q 1250 4750 2034 4750 
z
" id="DejaVuSans-30" transform="scale(0.015625)"/>
       </defs>
       <use xlink:href="#DejaVuSans-2d"/>
       <use x="36.083984" xlink:href="#DejaVuSans-31"/>
       <use x="99.707031" xlink:href="#DejaVuSans-2e"/>
       <use x="131.494141" xlink:href="#DejaVuSans-30"/>
       <use x="195.117188" xlink:href="#DejaVuSans-30"/>
      </g>
     </g>
    </g>
    <g id="xtick_2">
     <g id="line2d_3">
      <path clip-path="url(#pa1cf70f2d4)" d="M 143.018182 378 
L 143.018182 51.84 
" style="fill:none;stroke:#b0b0b0;stroke-linecap:square;stroke-width:0.8;"/>
     </g>
     <g id="line2d_4">
      <g>
       <use style="stroke:#000000;stroke-width:0.8;" x="143.018182" xlink:href="#m41ca6bcbb6" y="378"/>
      </g>
     </g>
     <g id="text_2">
      <!-- -0.75 -->
      <g transform="translate(130.081463 392.598437)scale(0.1 -0.1)">
       <defs>
        <path d="M 525 4666 
L 3525 4666 
L 3525 4397 
L 1831 0 
L 1172 0 
L 2766 4134 
L 525 4134 
L 525 4666 
z
" id="DejaVuSans-37" transform="scale(0.015625)"/>
        <path d="M 691 4666 
L 3169 4666 
L 3169 4134 
L 1269 4134 
L 1269 2991 
Q 1406 3038 1543 3061 
Q 1681 3084 1819 3084 
Q 2600 3084 3056 2656 
Q 3513 2228 3513 1497 
Q 3513 744 3044 326 
Q 2575 -91 1722 -91 
Q 1428 -91 1123 -41 
Q 819 9 494 109 
L 494 744 
Q 775 591 1075 516 
Q 1375 441 1709 441 
Q 2250 441 2565 725 
Q 2881 1009 2881 1497 
Q 2881 1984 2565 2268 
Q 2250 2553 1709 2553 
Q 1456 2553 1204 2497 
Q 953 2441 691 2322 
L 691 4666 
z
" id="DejaVuSans-35" transform="scale(0.015625)"/>
       </defs>
       <use xlink:href="#DejaVuSans-2d"/>
       <use x="36.083984" xlink:href="#DejaVuSans-30"/>
       <use x="99.707031" xlink:href="#DejaVuSans-2e"/>
       <use x="131.494141" xlink:href="#DejaVuSans-37"/>
       <use x="195.117188" xlink:href="#DejaVuSans-35"/>
      </g>
     </g>
    </g>
    <g id="xtick_3">
     <g id="line2d_5">
      <path clip-path="url(#pa1cf70f2d4)" d="M 193.745455 378 
L 193.745455 51.84 
" style="fill:none;stroke:#b0b0b0;stroke-linecap:square;stroke-width:0.8;"/>
     </g>
     <g id="line2d_6">
      <g>
       <use style="stroke:#000000;stroke-width:0.8;" x="193.745455" xlink:href="#m41ca6bcbb6" y="378"/>
      </g>
     </g>
     <g id="text_3">
      <!-- -0.50 -->
      <g transform="translate(180.808736 392.598437)scale(0.1 -0.1)">
       <use xlink:href="#DejaVuSans-2d"/>
       <use x="36.083984" xlink:href="#DejaVuSans-30"/>
       <use x="99.707031" xlink:href="#DejaVuSans-2e"/>
       <use x="131.494141" xlink:href="#DejaVuSans-35"/>
       <use x="195.117188" xlink:href="#DejaVuSans-30"/>
      </g>
     </g>
    </g>
    <g id="xtick_4">
     <g id="line2d_7">
      <path clip-path="url(#pa1cf70f2d4)" d="M 244.472727 378 
L 244.472727 51.84 
" style="fill:none;stroke:#b0b0b0;stroke-linecap:square;stroke-width:0.8;"/>
     </g>
     <g id="line2d_8">
      <g>
       <use style="stroke:#000000;stroke-width:0.8;" x="244.472727" xlink:href="#m41ca6bcbb6" y="378"/>
      </g>
     </g>
     <g id="text_4">
      <!-- -0.25 -->
      <g transform="translate(231.536009 392.598437)scale(0.1 -0.1)">
       <defs>
        <path d="M 1228 531 
L 3431 531 
L 3431 0 
L 469 0 
L 469 531 
Q 828 903 1448 1529 
Q 2069 2156 2228 2338 
Q 2531 2678 2651 2914 
Q 2772 3150 2772 3378 
Q 2772 3750 2511 3984 
Q 2250 4219 1831 4219 
Q 1534 4219 1204 4116 
Q 875 4013 500 3803 
L 500 4441 
Q 881 4594 1212 4672 
Q 1544 4750 1819 4750 
Q 2544 4750 2975 4387 
Q 3406 4025 3406 3419 
Q 3406 3131 3298 2873 
Q 3191 2616 2906 2266 
Q 2828 2175 2409 1742 
Q 1991 1309 1228 531 
z
" id="DejaVuSans-32" transform="scale(0.015625)"/>
       </defs>
       <use xlink:href="#DejaVuSans-2d"/>
       <use x="36.083984" xlink:href="#DejaVuSans-30"/>
       <use x="99.707031" xlink:href="#DejaVuSans-2e"/>
       <use x="131.494141" xlink:href="#DejaVuSans-32"/>
       <use x="195.117188" xlink:href="#DejaVuSans-35"/>
      </g>
     </g>
    </g>
    <g id="xtick_5">
     <g id="line2d_9">
      <path clip-path="url(#pa1cf70f2d4)" d="M 295.2 378 
L 295.2 51.84 
" style="fill:none;stroke:#b0b0b0;stroke-linecap:square;stroke-width:0.8;"/>
     </g>
     <g id="line2d_10">
      <g>
       <use style="stroke:#000000;stroke-width:0.8;" x="295.2" xlink:href="#m41ca6bcbb6" y="378"/>
      </g>
     </g>
     <g id="text_5">
      <!-- 0.00 -->
      <g transform="translate(284.067187 392.598437)scale(0.1 -0.1)">
       <use xlink:href="#DejaVuSans-30"/>
       <use x="63.623047" xlink:href="#DejaVuSans-2e"/>
       <use x="95.410156" xlink:href="#DejaVuSans-30"/>
       <use x="159.033203" xlink:href="#DejaVuSans-30"/>
      </g>
     </g>
    </g>
    <g id="xtick_6">
     <g id="line2d_11">
      <path clip-path="url(#pa1cf70f2d4)" d="M 345.927273 378 
L 345.927273 51.84 
" style="fill:none;stroke:#b0b0b0;stroke-linecap:square;stroke-width:0.8;"/>
     </g>
     <g id="line2d_12">
      <g>
       <use style="stroke:#000000;stroke-width:0.8;" x="345.927273" xlink:href="#m41ca6bcbb6" y="378"/>
      </g>
     </g>
     <g id="text_6">
      <!-- 0.25 -->
      <g transform="translate(334.79446 392.598437)scale(0.1 -0.1)">
       <use xlink:href="#DejaVuSans-30"/>
       <use x="63.623047" xlink:href="#DejaVuSans-2e"/>
       <use x="95.410156" xlink:href="#DejaVuSans-32"/>
       <use x="159.033203" xlink:href="#DejaVuSans-35"/>
      </g>
     </g>
    </g>
    <g id="xtick_7">
     <g id="line2d_13">
      <path clip-path="url(#pa1cf70f2d4)" d="M 396.654545 378 
L 396.654545 51.84 
" style="fill:none;stroke:#b0b0b0;stroke-linecap:square;stroke-width:0.8;"/>
     </g>
     <g id="line2d_14">
      <g>
       <use style="stroke:#000000;stroke-width:0.8;" x="396.654545" xlink:href="#m41ca6bcbb6" y="378"/>
      </g>
     </g>
     <g id="text_7">
      <!-- 0.50 -->
      <g transform="translate(385.521733 392.598437)scale(0.1 -0.1)">
       <use xlink:href="#DejaVuSans-30"/>
       <use x="63.623047" xlink:href="#DejaVuSans-2e"/>
       <use x="95.410156" xlink:href="#DejaVuSans-35"/>
       <use x="159.033203" xlink:href="#DejaVuSans-30"/>
      </g>
     </g>
    </g>
    <g id="xtick_8">
     <g id="line2d_15">
      <path clip-path="url(#pa1cf70f2d4)" d="M 447.381818 378 
L 447.381818 51.84 
" style="fill:none;stroke:#b0b0b0;stroke-linecap:square;stroke-width:0.8;"/>
     </g>
     <g id="line2d_16">
      <g>
       <use style="stroke:#000000;stroke-width:0.8;" x="447.381818" xlink:href="#m41ca6bcbb6" y="378"/>
      </g>
     </g>
     <g id="text_8">
      <!-- 0.75 -->
      <g transform="translate(436.249006 392.598437)scale(0.1 -0.1)">
       <use xlink:href="#DejaVuSans-30"/>
       <use x="63.623047" xlink:href="#DejaVuSans-2e"/>
       <use x="95.410156" xlink:href="#DejaVuSans-37"/>
       <use x="159.033203" xlink:href="#DejaVuSans-35"/>
      </g>
     </g>
    </g>
    <g id="xtick_9">
     <g id="line2d_17">
      <path clip-path="url(#pa1cf70f2d4)" d="M 498.109091 378 
L 498.109091 51.84 
" style="fill:none;stroke:#b0b0b0;stroke-linecap:square;stroke-width:0.8;"/>
     </g>
     <g id="line2d_18">
      <g>
       <use style="stroke:#000000;stroke-width:0.8;" x="498.109091" xlink:href="#m41ca6bcbb6" y="378"/>
      </g>
     </g>
     <g id="text_9">
      <!-- 1.00 -->
      <g transform="translate(486.976278 392.598437)scale(0.1 -0.1)">
       <use xlink:href="#DejaVuSans-31"/>
       <use x="63.623047" xlink:href="#DejaVuSans-2e"/>
       <use x="95.410156" xlink:href="#DejaVuSans-30"/>
       <use x="159.033203" xlink:href="#DejaVuSans-30"/>
      </g>
     </g>
    </g>
   </g>
   <g id="matplotlib.axis_2">
    <g id="ytick_1">
     <g id="line2d_19">
      <path clip-path="url(#pa1cf70f2d4)" d="M 72 341.31381 
L 518.4 341.31381 
" style="fill:none;stroke:#b0b0b0;stroke-linecap:square;stroke-width:0.8;"/>
     </g>
     <g id="line2d_20">
      <defs>
       <path d="M 0 0 
L -3.5 0 
" id="m48d1c7fea7" style="stroke:#000000;stroke-width:0.8;"/>
      </defs>
      <g>
       <use style="stroke:#000000;stroke-width:0.8;" x="72" xlink:href="#m48d1c7fea7" y="341.31381"/>
      </g>
     </g>
     <g id="text_10">
      <!-- -1000 -->
      <g transform="translate(35.942188 345.113029)scale(0.1 -0.1)">
       <use xlink:href="#DejaVuSans-2d"/>
       <use x="36.083984" xlink:href="#DejaVuSans-31"/>
       <use x="99.707031" xlink:href="#DejaVuSans-30"/>
       <use x="163.330078" xlink:href="#DejaVuSans-30"/>
       <use x="226.953125" xlink:href="#DejaVuSans-30"/>
      </g>
     </g>
    </g>
    <g id="ytick_2">
     <g id="line2d_21">
      <path clip-path="url(#pa1cf70f2d4)" d="M 72 296.884683 
L 518.4 296.884683 
" style="fill:none;stroke:#b0b0b0;stroke-linecap:square;stroke-width:0.8;"/>
     </g>
     <g id="line2d_22">
      <g>
       <use style="stroke:#000000;stroke-width:0.8;" x="72" xlink:href="#m48d1c7fea7" y="296.884683"/>
      </g>
     </g>
     <g id="text_11">
      <!-- -800 -->
      <g transform="translate(42.304688 300.683902)scale(0.1 -0.1)">
       <defs>
        <path d="M 2034 2216 
Q 1584 2216 1326 1975 
Q 1069 1734 1069 1313 
Q 1069 891 1326 650 
Q 1584 409 2034 409 
Q 2484 409 2743 651 
Q 3003 894 3003 1313 
Q 3003 1734 2745 1975 
Q 2488 2216 2034 2216 
z
M 1403 2484 
Q 997 2584 770 2862 
Q 544 3141 544 3541 
Q 544 4100 942 4425 
Q 1341 4750 2034 4750 
Q 2731 4750 3128 4425 
Q 3525 4100 3525 3541 
Q 3525 3141 3298 2862 
Q 3072 2584 2669 2484 
Q 3125 2378 3379 2068 
Q 3634 1759 3634 1313 
Q 3634 634 3220 271 
Q 2806 -91 2034 -91 
Q 1263 -91 848 271 
Q 434 634 434 1313 
Q 434 1759 690 2068 
Q 947 2378 1403 2484 
z
M 1172 3481 
Q 1172 3119 1398 2916 
Q 1625 2713 2034 2713 
Q 2441 2713 2670 2916 
Q 2900 3119 2900 3481 
Q 2900 3844 2670 4047 
Q 2441 4250 2034 4250 
Q 1625 4250 1398 4047 
Q 1172 3844 1172 3481 
z
" id="DejaVuSans-38" transform="scale(0.015625)"/>
       </defs>
       <use xlink:href="#DejaVuSans-2d"/>
       <use x="36.083984" xlink:href="#DejaVuSans-38"/>
       <use x="99.707031" xlink:href="#DejaVuSans-30"/>
       <use x="163.330078" xlink:href="#DejaVuSans-30"/>
      </g>
     </g>
    </g>
    <g id="ytick_3">
     <g id="line2d_23">
      <path clip-path="url(#pa1cf70f2d4)" d="M 72 252.455556 
L 518.4 252.455556 
" style="fill:none;stroke:#b0b0b0;stroke-linecap:square;stroke-width:0.8;"/>
     </g>
     <g id="line2d_24">
      <g>
       <use style="stroke:#000000;stroke-width:0.8;" x="72" xlink:href="#m48d1c7fea7" y="252.455556"/>
      </g>
     </g>
     <g id="text_12">
      <!-- -600 -->
      <g transform="translate(42.304688 256.254775)scale(0.1 -0.1)">
       <defs>
        <path d="M 2113 2584 
Q 1688 2584 1439 2293 
Q 1191 2003 1191 1497 
Q 1191 994 1439 701 
Q 1688 409 2113 409 
Q 2538 409 2786 701 
Q 3034 994 3034 1497 
Q 3034 2003 2786 2293 
Q 2538 2584 2113 2584 
z
M 3366 4563 
L 3366 3988 
Q 3128 4100 2886 4159 
Q 2644 4219 2406 4219 
Q 1781 4219 1451 3797 
Q 1122 3375 1075 2522 
Q 1259 2794 1537 2939 
Q 1816 3084 2150 3084 
Q 2853 3084 3261 2657 
Q 3669 2231 3669 1497 
Q 3669 778 3244 343 
Q 2819 -91 2113 -91 
Q 1303 -91 875 529 
Q 447 1150 447 2328 
Q 447 3434 972 4092 
Q 1497 4750 2381 4750 
Q 2619 4750 2861 4703 
Q 3103 4656 3366 4563 
z
" id="DejaVuSans-36" transform="scale(0.015625)"/>
       </defs>
       <use xlink:href="#DejaVuSans-2d"/>
       <use x="36.083984" xlink:href="#DejaVuSans-36"/>
       <use x="99.707031" xlink:href="#DejaVuSans-30"/>
       <use x="163.330078" xlink:href="#DejaVuSans-30"/>
      </g>
     </g>
    </g>
    <g id="ytick_4">
     <g id="line2d_25">
      <path clip-path="url(#pa1cf70f2d4)" d="M 72 208.02643 
L 518.4 208.02643 
" style="fill:none;stroke:#b0b0b0;stroke-linecap:square;stroke-width:0.8;"/>
     </g>
     <g id="line2d_26">
      <g>
       <use style="stroke:#000000;stroke-width:0.8;" x="72" xlink:href="#m48d1c7fea7" y="208.02643"/>
      </g>
     </g>
     <g id="text_13">
      <!-- -400 -->
      <g transform="translate(42.304688 211.825649)scale(0.1 -0.1)">
       <defs>
        <path d="M 2419 4116 
L 825 1625 
L 2419 1625 
L 2419 4116 
z
M 2253 4666 
L 3047 4666 
L 3047 1625 
L 3713 1625 
L 3713 1100 
L 3047 1100 
L 3047 0 
L 2419 0 
L 2419 1100 
L 313 1100 
L 313 1709 
L 2253 4666 
z
" id="DejaVuSans-34" transform="scale(0.015625)"/>
       </defs>
       <use xlink:href="#DejaVuSans-2d"/>
       <use x="36.083984" xlink:href="#DejaVuSans-34"/>
       <use x="99.707031" xlink:href="#DejaVuSans-30"/>
       <use x="163.330078" xlink:href="#DejaVuSans-30"/>
      </g>
     </g>
    </g>
    <g id="ytick_5">
     <g id="line2d_27">
      <path clip-path="url(#pa1cf70f2d4)" d="M 72 163.597303 
L 518.4 163.597303 
" style="fill:none;stroke:#b0b0b0;stroke-linecap:square;stroke-width:0.8;"/>
     </g>
     <g id="line2d_28">
      <g>
       <use style="stroke:#000000;stroke-width:0.8;" x="72" xlink:href="#m48d1c7fea7" y="163.597303"/>
      </g>
     </g>
     <g id="text_14">
      <!-- -200 -->
      <g transform="translate(42.304688 167.396522)scale(0.1 -0.1)">
       <use xlink:href="#DejaVuSans-2d"/>
       <use x="36.083984" xlink:href="#DejaVuSans-32"/>
       <use x="99.707031" xlink:href="#DejaVuSans-30"/>
       <use x="163.330078" xlink:href="#DejaVuSans-30"/>
      </g>
     </g>
    </g>
    <g id="ytick_6">
     <g id="line2d_29">
      <path clip-path="url(#pa1cf70f2d4)" d="M 72 119.168176 
L 518.4 119.168176 
" style="fill:none;stroke:#b0b0b0;stroke-linecap:square;stroke-width:0.8;"/>
     </g>
     <g id="line2d_30">
      <g>
       <use style="stroke:#000000;stroke-width:0.8;" x="72" xlink:href="#m48d1c7fea7" y="119.168176"/>
      </g>
     </g>
     <g id="text_15">
      <!-- 0 -->
      <g transform="translate(58.6375 122.967395)scale(0.1 -0.1)">
       <use xlink:href="#DejaVuSans-30"/>
      </g>
     </g>
    </g>
    <g id="ytick_7">
     <g id="line2d_31">
      <path clip-path="url(#pa1cf70f2d4)" d="M 72 74.73905 
L 518.4 74.73905 
" style="fill:none;stroke:#b0b0b0;stroke-linecap:square;stroke-width:0.8;"/>
     </g>
     <g id="line2d_32">
      <g>
       <use style="stroke:#000000;stroke-width:0.8;" x="72" xlink:href="#m48d1c7fea7" y="74.73905"/>
      </g>
     </g>
     <g id="text_16">
      <!-- 200 -->
      <g transform="translate(45.9125 78.538268)scale(0.1 -0.1)">
       <use xlink:href="#DejaVuSans-32"/>
       <use x="63.623047" xlink:href="#DejaVuSans-30"/>
       <use x="127.246094" xlink:href="#DejaVuSans-30"/>
      </g>
     </g>
    </g>
   </g>
   <g id="line2d_33">
    <path clip-path="url(#pa1cf70f2d4)" d="M 92.290909 122.278215 
L 96.390083 122.04702 
L 100.489256 121.828756 
L 104.58843 121.622867 
L 108.687603 121.428812 
L 112.786777 121.246071 
L 116.88595 121.074142 
L 120.985124 120.91254 
L 125.084298 120.7608 
L 129.183471 120.618471 
L 133.282645 120.485122 
L 137.381818 120.360334 
L 141.480992 120.243709 
L 145.580165 120.134861 
L 149.679339 120.03342 
L 153.778512 119.939031 
L 157.877686 119.851355 
L 161.97686 119.770063 
L 166.076033 119.694842 
L 170.175207 119.625394 
L 174.27438 119.561429 
L 178.373554 119.502673 
L 182.472727 119.448863 
L 186.571901 119.399748 
L 190.671074 119.355085 
L 194.770248 119.314647 
L 198.869421 119.278212 
L 202.968595 119.245572 
L 207.067769 119.216525 
L 211.166942 119.190882 
L 215.266116 119.168459 
L 219.365289 119.149083 
L 223.464463 119.132586 
L 227.563636 119.118811 
L 231.66281 119.107605 
L 235.761983 119.098823 
L 239.861157 119.092326 
L 243.960331 119.087982 
L 248.059504 119.085662 
L 252.158678 119.085245 
L 256.257851 119.086612 
L 260.357025 119.089649 
L 264.456198 119.094248 
L 268.555372 119.100301 
L 272.654545 119.107705 
L 276.753719 119.11636 
L 280.852893 119.126166 
L 284.952066 119.137028 
L 289.05124 119.14885 
L 293.150413 119.161537 
L 297.249587 119.174997 
L 301.34876 119.189135 
L 305.447934 119.203858 
L 309.547107 119.219071 
L 313.646281 119.23468 
L 317.745455 119.250588 
L 321.844628 119.266696 
L 325.943802 119.282903 
L 330.042975 119.299106 
L 334.142149 119.315199 
L 338.241322 119.331072 
L 342.340496 119.346612 
L 346.439669 119.361699 
L 350.538843 119.376213 
L 354.638017 119.390024 
L 358.73719 119.403001 
L 362.836364 119.415005 
L 366.935537 119.42589 
L 371.034711 119.435504 
L 375.133884 119.443689 
L 379.233058 119.450278 
L 383.332231 119.455097 
L 387.431405 119.457964 
L 391.530579 119.458687 
L 395.629752 119.457067 
L 399.728926 119.452893 
L 403.828099 119.445947 
L 407.927273 119.435997 
L 412.026446 119.422804 
L 416.12562 119.406116 
L 420.224793 119.385669 
L 424.323967 119.361189 
L 428.42314 119.332388 
L 432.522314 119.298966 
L 436.621488 119.260609 
L 440.720661 119.216992 
L 444.819835 119.167772 
L 448.919008 119.112596 
L 453.018182 119.051094 
L 457.117355 118.98288 
L 461.216529 118.907554 
L 465.315702 118.8247 
L 469.414876 118.733885 
L 473.51405 118.634659 
L 477.613223 118.526556 
L 481.712397 118.409092 
L 485.81157 118.281765 
L 489.910744 118.144054 
L 494.009917 117.995419 
L 498.109091 117.835303 
" style="fill:none;stroke:#000000;stroke-linecap:square;stroke-width:1.5;"/>
   </g>
   <g id="line2d_34">
    <path clip-path="url(#pa1cf70f2d4)" d="M 92.290909 126.584373 
L 96.390083 124.240346 
L 100.489256 120.710747 
L 104.58843 133.873866 
L 108.687603 119.977832 
L 112.786777 133.462393 
L 116.88595 122.749365 
L 120.985124 129.073614 
L 125.084298 106.49517 
L 129.183471 117.203622 
L 133.282645 127.564735 
L 137.381818 118.567254 
L 141.480992 117.539097 
L 145.580165 118.108495 
L 149.679339 126.396721 
L 153.778512 135.072319 
L 157.877686 143.605618 
L 161.97686 147.665225 
L 166.076033 135.203974 
L 170.175207 66.665455 
L 174.27438 118.601896 
L 178.373554 208.575625 
L 182.472727 234.500796 
L 186.571901 188.773417 
L 190.671074 143.458099 
L 194.770248 124.065371 
L 198.869421 134.935376 
L 202.968595 140.403326 
L 207.067769 145.86992 
L 211.166942 151.340309 
L 215.266116 156.807177 
L 219.365289 162.27648 
L 223.464463 167.743887 
L 227.563636 173.210752 
L 231.66281 173.315968 
L 235.761983 190.565883 
L 239.861157 210.717898 
L 243.960331 199.787422 
L 248.059504 188.853142 
L 252.158678 177.921039 
L 256.257851 166.990024 
L 260.357025 156.056839 
L 264.456198 145.126361 
L 268.555372 147.141183 
L 272.654545 156.552003 
L 276.753719 165.958478 
L 280.852893 175.367669 
L 284.952066 184.778484 
L 289.05124 194.187139 
L 293.150413 203.59633 
L 297.249587 213.006063 
L 301.34876 222.413627 
L 305.447934 231.824987 
L 309.547107 241.232551 
L 313.646281 244.739372 
L 317.745455 246.59637 
L 321.844628 248.452827 
L 325.943802 250.31091 
L 330.042975 252.164655 
L 334.142149 254.023823 
L 338.241322 255.880821 
L 342.340496 257.739989 
L 346.439669 259.595903 
L 350.538843 261.450733 
L 354.638017 263.306647 
L 358.73719 265.163645 
L 362.836364 267.024983 
L 366.935537 268.879812 
L 371.034711 270.735726 
L 375.133884 272.593809 
L 379.233058 274.448639 
L 383.332231 276.304552 
L 387.431405 278.162636 
L 391.530579 280.017465 
L 395.629752 281.877718 
L 399.728926 283.735801 
L 403.828099 285.589546 
L 407.927273 287.447629 
L 412.026446 289.305712 
L 416.12562 292.453499 
L 420.224793 295.99286 
L 424.323967 299.526798 
L 428.42314 303.066159 
L 432.522314 306.597928 
L 436.621488 310.13512 
L 440.720661 313.673396 
L 444.819835 317.201911 
L 448.919008 320.744526 
L 453.018182 324.279549 
L 457.117355 327.810232 
L 461.216529 331.351763 
L 465.315702 334.89004 
L 469.414876 338.420724 
L 473.51405 341.957916 
L 477.613223 345.494023 
L 481.712397 349.030116 
L 485.81157 352.559716 
L 489.910744 356.102331 
L 494.009917 359.636269 
L 498.109091 363.174545 
" style="fill:none;stroke:#0000ff;stroke-linecap:square;stroke-width:1.5;"/>
   </g>
   <g id="patch_3">
    <path d="M 72 378 
L 72 51.84 
" style="fill:none;stroke:#000000;stroke-linecap:square;stroke-linejoin:miter;stroke-width:0.8;"/>
   </g>
   <g id="patch_4">
    <path d="M 518.4 378 
L 518.4 51.84 
" style="fill:none;stroke:#000000;stroke-linecap:square;stroke-linejoin:miter;stroke-width:0.8;"/>
   </g>
   <g id="patch_5">
    <path d="M 72 378 
L 518.4 378 
" style="fill:none;stroke:#000000;stroke-linecap:square;stroke-linejoin:miter;stroke-width:0.8;"/>
   </g>
   <g id="patch_6">
    <path d="M 72 51.84 
L 518.4 51.84 
" style="fill:none;stroke:#000000;stroke-linecap:square;stroke-linejoin:miter;stroke-width:0.8;"/>
   </g>
   <g id="text_17">
    <!-- Data points, the orignal function, and the prediction -->
    <g transform="translate(138.93375 45.84)scale(0.12 -0.12)">
     <defs>
      <path d="M 1259 4147 
L 1259 519 
L 2022 519 
Q 2988 519 3436 956 
Q 3884 1394 3884 2338 
Q 3884 3275 3436 3711 
Q 2988 4147 2022 4147 
L 1259 4147 
z
M 628 4666 
L 1925 4666 
Q 3281 4666 3915 4102 
Q 4550 3538 4550 2338 
Q 4550 1131 3912 565 
Q 3275 0 1925 0 
L 628 0 
L 628 4666 
z
" id="DejaVuSans-44" transform="scale(0.015625)"/>
      <path d="M 2194 1759 
Q 1497 1759 1228 1600 
Q 959 1441 959 1056 
Q 959 750 1161 570 
Q 1363 391 1709 391 
Q 2188 391 2477 730 
Q 2766 1069 2766 1631 
L 2766 1759 
L 2194 1759 
z
M 3341 1997 
L 3341 0 
L 2766 0 
L 2766 531 
Q 2569 213 2275 61 
Q 1981 -91 1556 -91 
Q 1019 -91 701 211 
Q 384 513 384 1019 
Q 384 1609 779 1909 
Q 1175 2209 1959 2209 
L 2766 2209 
L 2766 2266 
Q 2766 2663 2505 2880 
Q 2244 3097 1772 3097 
Q 1472 3097 1187 3025 
Q 903 2953 641 2809 
L 641 3341 
Q 956 3463 1253 3523 
Q 1550 3584 1831 3584 
Q 2591 3584 2966 3190 
Q 3341 2797 3341 1997 
z
" id="DejaVuSans-61" transform="scale(0.015625)"/>
      <path d="M 1172 4494 
L 1172 3500 
L 2356 3500 
L 2356 3053 
L 1172 3053 
L 1172 1153 
Q 1172 725 1289 603 
Q 1406 481 1766 481 
L 2356 481 
L 2356 0 
L 1766 0 
Q 1100 0 847 248 
Q 594 497 594 1153 
L 594 3053 
L 172 3053 
L 172 3500 
L 594 3500 
L 594 4494 
L 1172 4494 
z
" id="DejaVuSans-74" transform="scale(0.015625)"/>
      <path id="DejaVuSans-20" transform="scale(0.015625)"/>
      <path d="M 1159 525 
L 1159 -1331 
L 581 -1331 
L 581 3500 
L 1159 3500 
L 1159 2969 
Q 1341 3281 1617 3432 
Q 1894 3584 2278 3584 
Q 2916 3584 3314 3078 
Q 3713 2572 3713 1747 
Q 3713 922 3314 415 
Q 2916 -91 2278 -91 
Q 1894 -91 1617 61 
Q 1341 213 1159 525 
z
M 3116 1747 
Q 3116 2381 2855 2742 
Q 2594 3103 2138 3103 
Q 1681 3103 1420 2742 
Q 1159 2381 1159 1747 
Q 1159 1113 1420 752 
Q 1681 391 2138 391 
Q 2594 391 2855 752 
Q 3116 1113 3116 1747 
z
" id="DejaVuSans-70" transform="scale(0.015625)"/>
      <path d="M 1959 3097 
Q 1497 3097 1228 2736 
Q 959 2375 959 1747 
Q 959 1119 1226 758 
Q 1494 397 1959 397 
Q 2419 397 2687 759 
Q 2956 1122 2956 1747 
Q 2956 2369 2687 2733 
Q 2419 3097 1959 3097 
z
M 1959 3584 
Q 2709 3584 3137 3096 
Q 3566 2609 3566 1747 
Q 3566 888 3137 398 
Q 2709 -91 1959 -91 
Q 1206 -91 779 398 
Q 353 888 353 1747 
Q 353 2609 779 3096 
Q 1206 3584 1959 3584 
z
" id="DejaVuSans-6f" transform="scale(0.015625)"/>
      <path d="M 603 3500 
L 1178 3500 
L 1178 0 
L 603 0 
L 603 3500 
z
M 603 4863 
L 1178 4863 
L 1178 4134 
L 603 4134 
L 603 4863 
z
" id="DejaVuSans-69" transform="scale(0.015625)"/>
      <path d="M 3513 2113 
L 3513 0 
L 2938 0 
L 2938 2094 
Q 2938 2591 2744 2837 
Q 2550 3084 2163 3084 
Q 1697 3084 1428 2787 
Q 1159 2491 1159 1978 
L 1159 0 
L 581 0 
L 581 3500 
L 1159 3500 
L 1159 2956 
Q 1366 3272 1645 3428 
Q 1925 3584 2291 3584 
Q 2894 3584 3203 3211 
Q 3513 2838 3513 2113 
z
" id="DejaVuSans-6e" transform="scale(0.015625)"/>
      <path d="M 2834 3397 
L 2834 2853 
Q 2591 2978 2328 3040 
Q 2066 3103 1784 3103 
Q 1356 3103 1142 2972 
Q 928 2841 928 2578 
Q 928 2378 1081 2264 
Q 1234 2150 1697 2047 
L 1894 2003 
Q 2506 1872 2764 1633 
Q 3022 1394 3022 966 
Q 3022 478 2636 193 
Q 2250 -91 1575 -91 
Q 1294 -91 989 -36 
Q 684 19 347 128 
L 347 722 
Q 666 556 975 473 
Q 1284 391 1588 391 
Q 1994 391 2212 530 
Q 2431 669 2431 922 
Q 2431 1156 2273 1281 
Q 2116 1406 1581 1522 
L 1381 1569 
Q 847 1681 609 1914 
Q 372 2147 372 2553 
Q 372 3047 722 3315 
Q 1072 3584 1716 3584 
Q 2034 3584 2315 3537 
Q 2597 3491 2834 3397 
z
" id="DejaVuSans-73" transform="scale(0.015625)"/>
      <path d="M 750 794 
L 1409 794 
L 1409 256 
L 897 -744 
L 494 -744 
L 750 256 
L 750 794 
z
" id="DejaVuSans-2c" transform="scale(0.015625)"/>
      <path d="M 3513 2113 
L 3513 0 
L 2938 0 
L 2938 2094 
Q 2938 2591 2744 2837 
Q 2550 3084 2163 3084 
Q 1697 3084 1428 2787 
Q 1159 2491 1159 1978 
L 1159 0 
L 581 0 
L 581 4863 
L 1159 4863 
L 1159 2956 
Q 1366 3272 1645 3428 
Q 1925 3584 2291 3584 
Q 2894 3584 3203 3211 
Q 3513 2838 3513 2113 
z
" id="DejaVuSans-68" transform="scale(0.015625)"/>
      <path d="M 3597 1894 
L 3597 1613 
L 953 1613 
Q 991 1019 1311 708 
Q 1631 397 2203 397 
Q 2534 397 2845 478 
Q 3156 559 3463 722 
L 3463 178 
Q 3153 47 2828 -22 
Q 2503 -91 2169 -91 
Q 1331 -91 842 396 
Q 353 884 353 1716 
Q 353 2575 817 3079 
Q 1281 3584 2069 3584 
Q 2775 3584 3186 3129 
Q 3597 2675 3597 1894 
z
M 3022 2063 
Q 3016 2534 2758 2815 
Q 2500 3097 2075 3097 
Q 1594 3097 1305 2825 
Q 1016 2553 972 2059 
L 3022 2063 
z
" id="DejaVuSans-65" transform="scale(0.015625)"/>
      <path d="M 2631 2963 
Q 2534 3019 2420 3045 
Q 2306 3072 2169 3072 
Q 1681 3072 1420 2755 
Q 1159 2438 1159 1844 
L 1159 0 
L 581 0 
L 581 3500 
L 1159 3500 
L 1159 2956 
Q 1341 3275 1631 3429 
Q 1922 3584 2338 3584 
Q 2397 3584 2469 3576 
Q 2541 3569 2628 3553 
L 2631 2963 
z
" id="DejaVuSans-72" transform="scale(0.015625)"/>
      <path d="M 2906 1791 
Q 2906 2416 2648 2759 
Q 2391 3103 1925 3103 
Q 1463 3103 1205 2759 
Q 947 2416 947 1791 
Q 947 1169 1205 825 
Q 1463 481 1925 481 
Q 2391 481 2648 825 
Q 2906 1169 2906 1791 
z
M 3481 434 
Q 3481 -459 3084 -895 
Q 2688 -1331 1869 -1331 
Q 1566 -1331 1297 -1286 
Q 1028 -1241 775 -1147 
L 775 -588 
Q 1028 -725 1275 -790 
Q 1522 -856 1778 -856 
Q 2344 -856 2625 -561 
Q 2906 -266 2906 331 
L 2906 616 
Q 2728 306 2450 153 
Q 2172 0 1784 0 
Q 1141 0 747 490 
Q 353 981 353 1791 
Q 353 2603 747 3093 
Q 1141 3584 1784 3584 
Q 2172 3584 2450 3431 
Q 2728 3278 2906 2969 
L 2906 3500 
L 3481 3500 
L 3481 434 
z
" id="DejaVuSans-67" transform="scale(0.015625)"/>
      <path d="M 603 4863 
L 1178 4863 
L 1178 0 
L 603 0 
L 603 4863 
z
" id="DejaVuSans-6c" transform="scale(0.015625)"/>
      <path d="M 2375 4863 
L 2375 4384 
L 1825 4384 
Q 1516 4384 1395 4259 
Q 1275 4134 1275 3809 
L 1275 3500 
L 2222 3500 
L 2222 3053 
L 1275 3053 
L 1275 0 
L 697 0 
L 697 3053 
L 147 3053 
L 147 3500 
L 697 3500 
L 697 3744 
Q 697 4328 969 4595 
Q 1241 4863 1831 4863 
L 2375 4863 
z
" id="DejaVuSans-66" transform="scale(0.015625)"/>
      <path d="M 544 1381 
L 544 3500 
L 1119 3500 
L 1119 1403 
Q 1119 906 1312 657 
Q 1506 409 1894 409 
Q 2359 409 2629 706 
Q 2900 1003 2900 1516 
L 2900 3500 
L 3475 3500 
L 3475 0 
L 2900 0 
L 2900 538 
Q 2691 219 2414 64 
Q 2138 -91 1772 -91 
Q 1169 -91 856 284 
Q 544 659 544 1381 
z
M 1991 3584 
L 1991 3584 
z
" id="DejaVuSans-75" transform="scale(0.015625)"/>
      <path d="M 3122 3366 
L 3122 2828 
Q 2878 2963 2633 3030 
Q 2388 3097 2138 3097 
Q 1578 3097 1268 2742 
Q 959 2388 959 1747 
Q 959 1106 1268 751 
Q 1578 397 2138 397 
Q 2388 397 2633 464 
Q 2878 531 3122 666 
L 3122 134 
Q 2881 22 2623 -34 
Q 2366 -91 2075 -91 
Q 1284 -91 818 406 
Q 353 903 353 1747 
Q 353 2603 823 3093 
Q 1294 3584 2113 3584 
Q 2378 3584 2631 3529 
Q 2884 3475 3122 3366 
z
" id="DejaVuSans-63" transform="scale(0.015625)"/>
      <path d="M 2906 2969 
L 2906 4863 
L 3481 4863 
L 3481 0 
L 2906 0 
L 2906 525 
Q 2725 213 2448 61 
Q 2172 -91 1784 -91 
Q 1150 -91 751 415 
Q 353 922 353 1747 
Q 353 2572 751 3078 
Q 1150 3584 1784 3584 
Q 2172 3584 2448 3432 
Q 2725 3281 2906 2969 
z
M 947 1747 
Q 947 1113 1208 752 
Q 1469 391 1925 391 
Q 2381 391 2643 752 
Q 2906 1113 2906 1747 
Q 2906 2381 2643 2742 
Q 2381 3103 1925 3103 
Q 1469 3103 1208 2742 
Q 947 2381 947 1747 
z
" id="DejaVuSans-64" transform="scale(0.015625)"/>
     </defs>
     <use xlink:href="#DejaVuSans-44"/>
     <use x="77.001953" xlink:href="#DejaVuSans-61"/>
     <use x="138.28125" xlink:href="#DejaVuSans-74"/>
     <use x="177.490234" xlink:href="#DejaVuSans-61"/>
     <use x="238.769531" xlink:href="#DejaVuSans-20"/>
     <use x="270.556641" xlink:href="#DejaVuSans-70"/>
     <use x="334.033203" xlink:href="#DejaVuSans-6f"/>
     <use x="395.214844" xlink:href="#DejaVuSans-69"/>
     <use x="422.998047" xlink:href="#DejaVuSans-6e"/>
     <use x="486.376953" xlink:href="#DejaVuSans-74"/>
     <use x="525.585938" xlink:href="#DejaVuSans-73"/>
     <use x="577.685547" xlink:href="#DejaVuSans-2c"/>
     <use x="609.472656" xlink:href="#DejaVuSans-20"/>
     <use x="641.259766" xlink:href="#DejaVuSans-74"/>
     <use x="680.46875" xlink:href="#DejaVuSans-68"/>
     <use x="743.847656" xlink:href="#DejaVuSans-65"/>
     <use x="805.371094" xlink:href="#DejaVuSans-20"/>
     <use x="837.158203" xlink:href="#DejaVuSans-6f"/>
     <use x="898.339844" xlink:href="#DejaVuSans-72"/>
     <use x="939.453125" xlink:href="#DejaVuSans-69"/>
     <use x="967.236328" xlink:href="#DejaVuSans-67"/>
     <use x="1030.712891" xlink:href="#DejaVuSans-6e"/>
     <use x="1094.091797" xlink:href="#DejaVuSans-61"/>
     <use x="1155.371094" xlink:href="#DejaVuSans-6c"/>
     <use x="1183.154297" xlink:href="#DejaVuSans-20"/>
     <use x="1214.941406" xlink:href="#DejaVuSans-66"/>
     <use x="1250.146484" xlink:href="#DejaVuSans-75"/>
     <use x="1313.525391" xlink:href="#DejaVuSans-6e"/>
     <use x="1376.904297" xlink:href="#DejaVuSans-63"/>
     <use x="1431.884766" xlink:href="#DejaVuSans-74"/>
     <use x="1471.09375" xlink:href="#DejaVuSans-69"/>
     <use x="1498.876953" xlink:href="#DejaVuSans-6f"/>
     <use x="1560.058594" xlink:href="#DejaVuSans-6e"/>
     <use x="1623.4375" xlink:href="#DejaVuSans-2c"/>
     <use x="1655.224609" xlink:href="#DejaVuSans-20"/>
     <use x="1687.011719" xlink:href="#DejaVuSans-61"/>
     <use x="1748.291016" xlink:href="#DejaVuSans-6e"/>
     <use x="1811.669922" xlink:href="#DejaVuSans-64"/>
     <use x="1875.146484" xlink:href="#DejaVuSans-20"/>
     <use x="1906.933594" xlink:href="#DejaVuSans-74"/>
     <use x="1946.142578" xlink:href="#DejaVuSans-68"/>
     <use x="2009.521484" xlink:href="#DejaVuSans-65"/>
     <use x="2071.044922" xlink:href="#DejaVuSans-20"/>
     <use x="2102.832031" xlink:href="#DejaVuSans-70"/>
     <use x="2166.308594" xlink:href="#DejaVuSans-72"/>
     <use x="2205.171875" xlink:href="#DejaVuSans-65"/>
     <use x="2266.695312" xlink:href="#DejaVuSans-64"/>
     <use x="2330.171875" xlink:href="#DejaVuSans-69"/>
     <use x="2357.955078" xlink:href="#DejaVuSans-63"/>
     <use x="2412.935547" xlink:href="#DejaVuSans-74"/>
     <use x="2452.144531" xlink:href="#DejaVuSans-69"/>
     <use x="2479.927734" xlink:href="#DejaVuSans-6f"/>
     <use x="2541.109375" xlink:href="#DejaVuSans-6e"/>
    </g>
   </g>
   <g id="legend_1">
    <g id="patch_7">
     <path d="M 429.726562 103.874375 
L 511.4 103.874375 
Q 513.4 103.874375 513.4 101.874375 
L 513.4 58.84 
Q 513.4 56.84 511.4 56.84 
L 429.726562 56.84 
Q 427.726562 56.84 427.726562 58.84 
L 427.726562 101.874375 
Q 427.726562 103.874375 429.726562 103.874375 
z
" style="fill:#ffffff;opacity:0.8;stroke:#cccccc;stroke-linejoin:miter;"/>
    </g>
    <g id="line2d_35">
     <path d="M 431.726562 64.938437 
L 451.726562 64.938437 
" style="fill:none;stroke:#000000;stroke-linecap:square;stroke-width:1.5;"/>
    </g>
    <g id="line2d_36"/>
    <g id="text_18">
     <!-- Noisy -->
     <g transform="translate(459.726562 68.438437)scale(0.1 -0.1)">
      <defs>
       <path d="M 628 4666 
L 1478 4666 
L 3547 763 
L 3547 4666 
L 4159 4666 
L 4159 0 
L 3309 0 
L 1241 3903 
L 1241 0 
L 628 0 
L 628 4666 
z
" id="DejaVuSans-4e" transform="scale(0.015625)"/>
       <path d="M 2059 -325 
Q 1816 -950 1584 -1140 
Q 1353 -1331 966 -1331 
L 506 -1331 
L 506 -850 
L 844 -850 
Q 1081 -850 1212 -737 
Q 1344 -625 1503 -206 
L 1606 56 
L 191 3500 
L 800 3500 
L 1894 763 
L 2988 3500 
L 3597 3500 
L 2059 -325 
z
" id="DejaVuSans-79" transform="scale(0.015625)"/>
      </defs>
      <use xlink:href="#DejaVuSans-4e"/>
      <use x="74.804688" xlink:href="#DejaVuSans-6f"/>
      <use x="135.986328" xlink:href="#DejaVuSans-69"/>
      <use x="163.769531" xlink:href="#DejaVuSans-73"/>
      <use x="215.869141" xlink:href="#DejaVuSans-79"/>
     </g>
    </g>
    <g id="line2d_37">
     <path d="M 431.726562 79.616562 
L 451.726562 79.616562 
" style="fill:none;stroke:#0000ff;stroke-linecap:square;stroke-width:1.5;"/>
    </g>
    <g id="line2d_38"/>
    <g id="text_19">
     <!-- Prediction -->
     <g transform="translate(459.726562 83.116562)scale(0.1 -0.1)">
      <defs>
       <path d="M 1259 4147 
L 1259 2394 
L 2053 2394 
Q 2494 2394 2734 2622 
Q 2975 2850 2975 3272 
Q 2975 3691 2734 3919 
Q 2494 4147 2053 4147 
L 1259 4147 
z
M 628 4666 
L 2053 4666 
Q 2838 4666 3239 4311 
Q 3641 3956 3641 3272 
Q 3641 2581 3239 2228 
Q 2838 1875 2053 1875 
L 1259 1875 
L 1259 0 
L 628 0 
L 628 4666 
z
" id="DejaVuSans-50" transform="scale(0.015625)"/>
      </defs>
      <use xlink:href="#DejaVuSans-50"/>
      <use x="58.552734" xlink:href="#DejaVuSans-72"/>
      <use x="97.416016" xlink:href="#DejaVuSans-65"/>
      <use x="158.939453" xlink:href="#DejaVuSans-64"/>
      <use x="222.416016" xlink:href="#DejaVuSans-69"/>
      <use x="250.199219" xlink:href="#DejaVuSans-63"/>
      <use x="305.179688" xlink:href="#DejaVuSans-74"/>
      <use x="344.388672" xlink:href="#DejaVuSans-69"/>
      <use x="372.171875" xlink:href="#DejaVuSans-6f"/>
      <use x="433.353516" xlink:href="#DejaVuSans-6e"/>
     </g>
    </g>
    <g id="PathCollection_2">
     <g>
      <use style="fill:#ffa500;stroke:#ffa500;" x="441.726562" xlink:href="#m03f72fbd2d" y="95.169687"/>
     </g>
    </g>
    <g id="text_20">
     <!-- Original -->
     <g transform="translate(459.726562 97.794687)scale(0.1 -0.1)">
      <defs>
       <path d="M 2522 4238 
Q 1834 4238 1429 3725 
Q 1025 3213 1025 2328 
Q 1025 1447 1429 934 
Q 1834 422 2522 422 
Q 3209 422 3611 934 
Q 4013 1447 4013 2328 
Q 4013 3213 3611 3725 
Q 3209 4238 2522 4238 
z
M 2522 4750 
Q 3503 4750 4090 4092 
Q 4678 3434 4678 2328 
Q 4678 1225 4090 567 
Q 3503 -91 2522 -91 
Q 1538 -91 948 565 
Q 359 1222 359 2328 
Q 359 3434 948 4092 
Q 1538 4750 2522 4750 
z
" id="DejaVuSans-4f" transform="scale(0.015625)"/>
      </defs>
      <use xlink:href="#DejaVuSans-4f"/>
      <use x="78.710938" xlink:href="#DejaVuSans-72"/>
      <use x="119.824219" xlink:href="#DejaVuSans-69"/>
      <use x="147.607422" xlink:href="#DejaVuSans-67"/>
      <use x="211.083984" xlink:href="#DejaVuSans-69"/>
      <use x="238.867188" xlink:href="#DejaVuSans-6e"/>
      <use x="302.246094" xlink:href="#DejaVuSans-61"/>
      <use x="363.525391" xlink:href="#DejaVuSans-6c"/>
     </g>
    </g>
   </g>
  </g>
 </g>
 <defs>
  <clipPath id="pa1cf70f2d4">
   <rect height="326.16" width="446.4" x="72" y="51.84"/>
  </clipPath>
 </defs>
</svg>
